<?xml version="1.0" encoding="UTF-8" standalone="no"?>
<!-- Created with Inkscape (http://www.inkscape.org/) -->

<svg
   width="210mm"
   height="297mm"
   viewBox="0 0 210 297"
   version="1.1"
   id="svg5"
   xml:space="preserve"
   inkscape:version="1.2 (dc2aedaf03, 2022-05-15)"
   sodipodi:docname="cextoo-icon.svg"
   xmlns:inkscape="http://www.inkscape.org/namespaces/inkscape"
   xmlns:sodipodi="http://sodipodi.sourceforge.net/DTD/sodipodi-0.dtd"
   xmlns="http://www.w3.org/2000/svg"
   xmlns:svg="http://www.w3.org/2000/svg"><sodipodi:namedview
     id="namedview7"
     pagecolor="#505050"
     bordercolor="#eeeeee"
     borderopacity="1"
     inkscape:showpageshadow="0"
     inkscape:pageopacity="0"
     inkscape:pagecheckerboard="0"
     inkscape:deskcolor="#505050"
     inkscape:document-units="mm"
     showgrid="false"
     inkscape:zoom="12.07284"
     inkscape:cx="186.41016"
     inkscape:cy="439.08477"
     inkscape:window-width="1920"
     inkscape:window-height="1027"
     inkscape:window-x="-8"
     inkscape:window-y="-8"
     inkscape:window-maximized="1"
     inkscape:current-layer="layer1" /><defs
     id="defs2"><rect
       x="177.58871"
       y="413.49013"
       width="307.46702"
       height="70.240311"
       id="rect186" /></defs><g
     inkscape:label="Camada 1"
     inkscape:groupmode="layer"
     id="layer1"><path
       id="rect4649"
       style="fill:#9ca2a7;fill-opacity:1;stroke-width:0.0427345"
       d="m 45.937757,109.82533 c -1.436233,0.14962 -3.522189,0.39754 -3.543562,0.41464 -0.0171,0.017 0.08124,0.55995 0.218025,1.2054 l 0.243635,1.17553 0.312009,0.0127 c 0.299216,0.0128 0.312048,0.0172 0.2864,0.1069 -0.07694,0.30349 -0.119677,0.54717 -0.0983,0.56855 0.03419,0.0384 0.136757,-0.0342 0.824951,-0.55998 l 0.581379,-0.44882 h 0.465917 c 0.337686,0 0.474445,-0.0172 0.487269,-0.0556 0.04275,-0.11968 0.320608,-2.34239 0.299236,-2.38087 -0.01283,-0.0256 -0.0513,-0.0385 -0.07695,-0.0385 z"
       clip-path="none" /><g
       id="g256"
       transform="matrix(0.00336001,0,0,0.00336001,43.345636,110.47168)"
       style="fill:#1d2327;fill-opacity:1"
       clip-path="none"><g
         id="g199"
         style="fill:#1d2327;fill-opacity:1">
	<g
   id="g197"
   style="fill:#1d2327;fill-opacity:1">
		<path
   d="M 342.3,137.978 H 385 l -63.3,-108.6 c -5.1,-8.8 -16.4,-11.8 -25.2,-6.6 -8.8,5.1 -11.8,16.4 -6.6,25.2 z"
   id="path191"
   style="fill:#1d2327;fill-opacity:1" />
		<path
   d="m 197.4,47.978 c 5.1,-8.8 2.2,-20.1 -6.6,-25.2 -8.8,-5.1 -20.1,-2.2 -25.2,6.6 l -63.3,108.7 H 145 Z"
   id="path193"
   style="fill:#1d2327;fill-opacity:1" />
		<path
   d="M 455.7,171.278 H 31.3 c -17.3,0 -31.3,14 -31.3,31.3 v 34.7 c 0,17.3 14,31.3 31.3,31.3 h 9.8 l 30.2,163.7 c 3.8,19.3 21.4,34.6 39.7,34.6 h 12 78.8 c 8,0 18.4,0 29,0 v 0 h 9.6 9.6 v 0 c 10.6,0 21,0 29,0 h 78.8 12 c 18.3,0 35.9,-15.3 39.7,-34.6 l 30.4,-163.8 h 15.9 c 17.3,0 31.3,-14 31.3,-31.3 v -34.7 c -0.1,-17.2 -14.1,-31.2 -31.4,-31.2 z m -282.9,163.6 v 70.6 c 0,10.1 -8.2,17.7 -17.7,17.7 -10.1,0 -17.7,-8.2 -17.7,-17.7 v -29.6 -69.4 c 0,-10.1 8.2,-17.7 17.7,-17.7 10.1,0 17.7,8.2 17.7,17.7 z m 56.8,0 v 70.6 c 0,10.1 -8.2,17.7 -17.7,17.7 -10.1,0 -17.7,-8.2 -17.7,-17.7 v -29.6 -69.4 c 0,-10.1 8.2,-17.7 17.7,-17.7 9.5,0 17.7,8.2 17.7,17.7 z m 57.1,41 v 29.6 c 0,9.5 -7.6,17.7 -17.7,17.7 -9.5,0 -17.7,-7.6 -17.7,-17.7 v -70.6 -28.4 c 0,-9.5 8.2,-17.7 17.7,-17.7 9.5,0 17.7,7.6 17.7,17.7 z m 56.8,0 v 29.6 c 0,9.5 -7.6,17.7 -17.7,17.7 -9.5,0 -17.7,-7.6 -17.7,-17.7 v -70.6 -28.4 c 0,-9.5 7.6,-17.7 17.7,-17.7 9.5,0 17.7,7.6 17.7,17.7 z"
   id="path195"
   style="fill:#1d2327;fill-opacity:1" />
	</g>
</g><g
         id="g201"
         style="fill:#1d2327;fill-opacity:1">
</g><g
         id="g203"
         style="fill:#1d2327;fill-opacity:1">
</g><g
         id="g205"
         style="fill:#1d2327;fill-opacity:1">
</g><g
         id="g207"
         style="fill:#1d2327;fill-opacity:1">
</g><g
         id="g209"
         style="fill:#1d2327;fill-opacity:1">
</g><g
         id="g211"
         style="fill:#1d2327;fill-opacity:1">
</g><g
         id="g213"
         style="fill:#1d2327;fill-opacity:1">
</g><g
         id="g215"
         style="fill:#1d2327;fill-opacity:1">
</g><g
         id="g217"
         style="fill:#1d2327;fill-opacity:1">
</g><g
         id="g219"
         style="fill:#1d2327;fill-opacity:1">
</g><g
         id="g221"
         style="fill:#1d2327;fill-opacity:1">
</g><g
         id="g223"
         style="fill:#1d2327;fill-opacity:1">
</g><g
         id="g225"
         style="fill:#1d2327;fill-opacity:1">
</g><g
         id="g227"
         style="fill:#1d2327;fill-opacity:1">
</g><g
         id="g229"
         style="fill:#1d2327;fill-opacity:1">
</g></g></g></svg>
